<?xml version="1.0" encoding="utf-8" standalone="no"?><!DOCTYPE svg PUBLIC "-//W3C//DTD SVG 20010904//EN" "http://www.w3.org/TR/2001/REC-SVG-20010904/DTD/svg10.dtd"><svg xmlns="http://www.w3.org/2000/svg" width="590" height="351" xmlns:xlink="http://www.w3.org/1999/xlink"><source><![CDATA[Title: Customer auth flow - invalid facebookToken
CustomerMobile->Auth: /sign-in-facebook :facebookToken
Auth->Facebook: Verify token
Facebook->Auth: null
Auth->CustomerMobile: 401 Unauthorized]]></source><desc>Customer auth flow - invalid facebookToken</desc><defs><marker viewBox="0 0 5 5" markerWidth="5" markerHeight="5" orient="auto" refX="5" refY="2.5" id="markerArrowBlock"><path d="M 0 0 L 5 2.5 L 0 5 z"></path></marker><marker viewBox="0 0 9.6 16" markerWidth="4" markerHeight="16" orient="auto" refX="9.6" refY="8" id="markerArrowOpen"><path d="M 9.6,8 1.92,16 0,13.7 5.76,8 0,2.286 1.92,0 9.6,8 z"></path></marker></defs><g class="title"><path d="M10,10C339.5,25.9 241.4,-5.9 408.0,10.0C406.7,17.9 409.3,15.3 408.0,43.0C207.5,27.1 312.7,58.9 10.0,43.0C11.3,17.9 8.7,15.3 10.0,10.0" stroke="#000000" fill="#ffffff" style="stroke-width: 2;"></path><text x="15" y="29" style="font-size: 16px; font-family: danielbd;"><tspan x="15">Customer auth flow - invalid facebookToken</tspan></text></g><g class="actor"><path d="M10,53C102.3,59.4 125.5,46.6 169.8,53.0C171.5,70.7 168.1,69.0 169.8,96.0C63.7,89.6 65.7,102.4 10.0,96.0C8.3,68.5 11.7,63.3 10.0,53.0" stroke="#000000" fill="#ffffff" style="stroke-width: 2;"></path><text x="20" y="77" style="font-size: 16px; font-family: danielbd;"><tspan x="20">CustomerMobile</tspan></text></g><g class="actor"><path d="M10,288C136.4,281.6 124.7,294.4 169.8,288.0C171.5,313.3 168.1,317.2 169.8,331.0C76.8,324.6 112.0,337.4 10.0,331.0C11.7,320.7 8.3,318.0 10.0,288.0" stroke="#000000" fill="#ffffff" style="stroke-width: 2;"></path><text x="20" y="312" style="font-size: 16px; font-family: danielbd;"><tspan x="20">CustomerMobile</tspan></text></g><path d="M89.9,96.0C82.2,196.4 97.6,126.7 89.9,288.0" stroke="#000000" fill="none" style="stroke-width: 2;"></path><g class="actor"><path d="M355.0859375,53C394.0,55.5 408.6,50.5 418.8,53.0C417.0,63.2 420.5,63.3 418.8,96.0C370.4,98.5 392.3,93.5 355.1,96.0C353.4,67.7 356.8,82.5 355.1,53.0" stroke="#000000" fill="#ffffff" style="stroke-width: 2;"></path><text x="365.0859375" y="77" style="font-size: 16px; font-family: danielbd;"><tspan x="365.0859375">Auth</tspan></text></g><g class="actor"><path d="M355.0859375,288C403.5,285.5 408.6,290.5 418.8,288.0C417.0,298.3 420.5,308.5 418.8,331.0C399.1,333.5 365.7,328.5 355.1,331.0C353.4,299.5 356.8,307.8 355.1,288.0" stroke="#000000" fill="#ffffff" style="stroke-width: 2;"></path><text x="365.0859375" y="312" style="font-size: 16px; font-family: danielbd;"><tspan x="365.0859375">Auth</tspan></text></g><path d="M386.9,96.0C394.6,216.6 379.2,169.8 386.9,288.0" stroke="#000000" fill="none" style="stroke-width: 2;"></path><g class="actor"><path d="M465.109375,53C545.4,49.2 537.8,56.8 560.7,53.0C562.4,62.4 559.0,63.3 560.7,96.0C488.1,99.8 480.4,92.2 465.1,96.0C466.8,71.4 463.4,85.7 465.1,53.0" stroke="#000000" fill="#ffffff" style="stroke-width: 2;"></path><text x="475.109375" y="77" style="font-size: 16px; font-family: danielbd;"><tspan x="475.109375">Facebook</tspan></text></g><g class="actor"><path d="M465.109375,288C505.3,284.2 480.9,291.8 560.7,288.0C562.4,295.8 559.0,324.1 560.7,331.0C488.1,327.2 537.8,334.8 465.1,331.0C466.8,299.7 463.4,294.9 465.1,288.0" stroke="#000000" fill="#ffffff" style="stroke-width: 2;"></path><text x="475.109375" y="312" style="font-size: 16px; font-family: danielbd;"><tspan x="475.109375">Facebook</tspan></text></g><path d="M512.9,96.0C505.2,257.3 520.6,138.9 512.9,288.0" stroke="#000000" fill="none" style="stroke-width: 2;"></path><g class="signal"><text x="99.890625" y="123.5" style="font-size: 16px; font-family: danielbd;"><tspan x="99.890625">/sign-in-facebook :facebookToken</tspan></text><path d="M89.9,139.0C203.5,150.9 254.7,127.1 386.9,139.0" stroke="#000000" fill="none" style="stroke-width: 2; marker-end: url(&quot;#markerArrowBlock&quot;);"></path></g><g class="signal"><text x="396.921875" y="166.5" style="font-size: 16px; font-family: danielbd;"><tspan x="396.921875">Verify token</tspan></text><path d="M386.9,182.0C476.0,177.0 407.1,187.0 512.9,182.0" stroke="#000000" fill="none" style="stroke-width: 2; marker-end: url(&quot;#markerArrowBlock&quot;);"></path></g><g class="signal"><text x="435.640625" y="209.5" style="font-size: 16px; font-family: danielbd;"><tspan x="435.640625">null</tspan></text><path d="M512.9,225.0C407.1,230.0 488.7,220.0 386.9,225.0" stroke="#000000" fill="none" style="stroke-width: 2; marker-end: url(&quot;#markerArrowBlock&quot;);"></path></g><g class="signal"><text x="159.2265625" y="252.5" style="font-size: 16px; font-family: danielbd;"><tspan x="159.2265625">401 Unauthorized</tspan></text><path d="M386.9,268.0C137.4,279.9 161.2,256.1 89.9,268.0" stroke="#000000" fill="none" style="stroke-width: 2; marker-end: url(&quot;#markerArrowBlock&quot;);"></path></g></svg>